<?xml version="1.0" encoding="utf-8"?>
<!-- Generator: Adobe Illustrator 24.0.0, SVG Export Plug-In . SVG Version: 6.00 Build 0)  -->
<svg version="1.1" id="Layer_1" xmlns="http://www.w3.org/2000/svg" xmlns:xlink="http://www.w3.org/1999/xlink" x="0px" y="0px"
	 width="457.7px" height="359.1px" viewBox="0 0 457.7 359.1" style="enable-background:new 0 0 457.7 359.1;" xml:space="preserve"
	>
<style type="text/css">
	.st0{fill:#F2F2F2;}
	.st1{fill:#EE0000;}
</style>
<circle id="Ellipse_24" class="st0" cx="351.9" cy="105.8" r="74.8"/>
<circle id="Ellipse_25" class="st0" cx="180.1" cy="261" r="69.4"/>
<path id="Path_2693" class="st0" d="M453.1,210.4c0,8.2-6.7,14.9-14.9,14.9s-14.9-6.7-14.9-14.9c0-8.2,6.7-14.9,14.9-14.9
	C446.5,195.5,453.1,202.1,453.1,210.4C453.1,210.4,453.1,210.4,453.1,210.4z"/>
<path id="Path_2694" class="st0" d="M64.3,45.9c0,8.2-6.7,14.9-14.9,14.9s-14.9-6.7-14.9-14.9c0-8.2,6.7-14.9,14.9-14.9c0,0,0,0,0,0
	C57.6,31,64.3,37.6,64.3,45.9C64.3,45.9,64.3,45.9,64.3,45.9z"/>
<path class="st1" d="M47.5,158.2L30.7,81.9h16.2l10.4,51.8l14.9-51.8H87l14.8,51.6l10.4-51.6h15.7L111,158.2H94.4l-15.2-53.3
	l-15.1,53.3H47.5z"/>
<path class="st1" d="M161.1,159.3c-17.2,0-30.5-12.9-30.5-29.4c0-16.5,12.8-29.4,29.2-29.4c16.1,0,28.1,13.1,28.1,30.5v3.9h-42.3
	c2.1,7.1,8.3,11.9,16.1,11.9c5,0,9.5-1.6,12.5-4.6l9.8,8.9C177.1,156.7,170.1,159.3,161.1,159.3z M145.5,124.2h27.8
	c-1.9-6.8-7.3-11.4-13.8-11.4C152.6,112.7,147.4,117.2,145.5,124.2z"/>
<path class="st1" d="M213.4,140.9c0-10.7,8.6-17.1,23.1-17.1c4.6,0,9.3,0.8,13.7,2.2v-4c0-6.5-4-9.8-11.9-9.8
	c-4.8,0-10,1.5-17.2,4.6l-5.4-10.9c8.9-4.1,17-6,25.1-6c15.2,0,24,7.6,24,20.8v36.5h-14.6v-3.9c-4.8,3.3-9.8,4.9-16.3,4.9
	C221.9,158.1,213.4,151.1,213.4,140.9z M237.9,147.6c4.9,0,9-1.2,12.4-3.6v-8.4c-3.7-1.4-7.6-2.1-11.9-2.1c-6.8,0-10.8,2.7-10.8,7
	C227.6,144.9,231.6,147.6,237.9,147.6z"/>
<path class="st1" d="M277.1,100.4h14.7v6.1c3.5-4.8,8.7-7.4,14.9-7.4c2.9,0.1,4.6,0.4,6.1,1.3v12.8c-2.1-1-4.8-1.5-7.5-1.5
	c-5.7,0-10.7,2.9-13.5,8.3v36.1h-14.7V100.4z"/>
<path class="st1" d="M348.6,159.3c-17.2,0-30.5-12.9-30.5-29.4c0-16.5,12.8-29.4,29.2-29.4c16.1,0,28.1,13.1,28.1,30.5v3.9h-42.3
	c2.1,7.1,8.3,11.9,16.1,11.9c5,0,9.5-1.6,12.5-4.6l9.8,8.9C364.6,156.7,357.6,159.3,348.6,159.3z M333,124.2h27.8
	c-1.9-6.8-7.3-11.4-13.8-11.4C340.1,112.7,334.8,117.2,333,124.2z"/>
<path class="st1" d="M34.6,183.9h36.9c15.3,0,26.1,9.6,26.1,23.4c0,9.6-5.8,17.5-14.8,21.1l16.7,31.1H82.1l-14.8-28.9H50.3v28.9
	H34.6V183.9z M50.3,197.4v20.3h19.9c7,0,11.7-4.1,11.7-10.2c0-6-4.6-10.2-11.7-10.2H50.3z"/>
<path class="st1" d="M132.8,261.6c-17.2,0-30.5-12.9-30.5-29.4c0-16.5,12.8-29.4,29.2-29.4c16.1,0,28.1,13.1,28.1,30.5v3.9h-42.3
	c2.1,7.1,8.3,11.9,16.1,11.9c5,0,9.5-1.6,12.5-4.6l9.8,8.9C148.8,259.1,141.8,261.6,132.8,261.6z M117.2,226.5H145
	c-1.9-6.8-7.3-11.4-13.8-11.4C124.3,215.1,119.1,219.5,117.2,226.5z"/>
<path class="st1" d="M211.4,255.8c-4.6,3.6-10.1,5.4-16.1,5.4c-16.1,0-28.9-12.9-28.9-29.2s12.9-29.1,29.3-29.1
	c5.6,0,11,1.5,15.5,4.5v-23.2l14.9-3.3v79.6h-14.7V255.8z M197.7,248.5c5.6,0,10.1-2,13.5-5.5V221c-3.3-3.4-8.2-5.3-13.5-5.3
	c-9.5,0-16.6,7.1-16.6,16.5C181.1,241.3,188.3,248.5,197.7,248.5z"/>
<path class="st1" d="M258.8,183.9h15.7v30.3h34.8v-30.3h15.7v75.6h-15.7v-30.9h-34.8v30.9h-15.7V183.9z"/>
<path class="st1" d="M334.6,243.2c0-10.7,8.6-17.1,23.1-17.1c4.6,0,9.3,0.8,13.7,2.2v-4c0-6.5-4-9.8-11.9-9.8
	c-4.8,0-10,1.5-17.2,4.6l-5.4-10.9c8.9-4.1,17-6,25.1-6c15.2,0,24,7.6,24,20.8v36.5h-14.6v-3.9c-4.8,3.3-9.8,4.9-16.3,4.9
	C343,260.5,334.6,253.5,334.6,243.2z M359,249.9c4.9,0,9-1.2,12.4-3.6v-8.4c-3.7-1.4-7.6-2.1-11.9-2.1c-6.8,0-10.8,2.7-10.8,7
	C348.7,247.2,352.7,249.9,359,249.9z"/>
<path class="st1" d="M403.8,215.7h-11.6v-12.4h11.6v-14.4l14.8-3.3v17.7h16v12.4h-16v24.9c0,5.3,2.1,7.2,7.8,7.2
	c2.8,0,5-0.3,7.9-1.3v12.1c-3.1,1-8.2,1.7-11.4,1.7c-12.5,0-19-5.7-19-16.7V215.7z"/>
<path id="Path_2695" class="st1" d="M356,30.8h-0.5c0,14.4-11.7,26.1-26.1,26.1c-14.4,0-26.1-11.7-26.1-26.1
	c0-14.4,11.7-26.1,26.1-26.1c6.9,0,13.5,2.7,18.4,7.6c4.9,4.9,7.6,11.5,7.6,18.4h1c0-15-12.1-27.1-27.1-27.1
	c-15,0-27.1,12.1-27.1,27.1s12.1,27.1,27.1,27.1c0,0,0,0,0,0c15,0,27.1-12.1,27.1-27.1v0H356z"/>
<path id="Path_2696" class="st1" d="M255.7,310.9h-0.5c0,14.4-11.7,26.1-26.1,26.1c-14.4,0-26.1-11.7-26.1-26.1
	c0-14.4,11.7-26.1,26.1-26.1c6.9,0,13.5,2.7,18.4,7.6c4.9,4.9,7.6,11.5,7.6,18.4h1c0-15-12.1-27.1-27.1-27.1
	c-15,0-27.1,12.1-27.1,27.1c0,15,12.1,27.1,27.1,27.1c0,0,0,0,0,0c15,0,27.1-12.1,27.1-27.1H255.7z"/>
<path id="Path_2697" class="st1" d="M68,78.9h-0.6c0,18.2-14.8,33-33,33c-18.2,0-33-14.8-33-33c0-18.2,14.8-33,33-33
	c8.8,0,17.2,3.5,23.4,9.7c6.2,6.2,9.7,14.6,9.7,23.4h1.3c0-19-15.4-34.3-34.3-34.3C15.4,44.5,0,59.9,0,78.9s15.4,34.3,34.3,34.3h0
	c19,0,34.3-15.4,34.3-34.3H68z"/>
</svg>
